HIERARCHY
ROOT Hips
{
	OFFSET -14.64140 90.27770 -84.91600
	CHANNELS 6 Xposition Yposition Zposition Zrotation Xrotation Yrotation
	JOINT Spine
	{
		OFFSET 0.00000 13.20850 -1.60440
		CHANNELS 3 Zrotation Xrotation Yrotation
		JOINT Spine1
		{
			OFFSET 0.00000 8.61720 0.00000
			CHANNELS 3 Zrotation Xrotation Yrotation
			JOINT Spine2
			{
				OFFSET 0.00000 8.61720 0.00000
				CHANNELS 3 Zrotation Xrotation Yrotation
				JOINT Spine3
				{
					OFFSET 0.00000 8.61720 0.00000
					CHANNELS 3 Zrotation Xrotation Yrotation
					JOINT Neck
					{
						OFFSET 0.00000 11.07920 1.10790
						CHANNELS 3 Zrotation Xrotation Yrotation
						JOINT Neck1
						{
							OFFSET 0.00000 7.08030 0.00000
							CHANNELS 3 Zrotation Xrotation Yrotation
							JOINT Head
							{
								OFFSET 0.00000 7.08030 0.00000
								CHANNELS 3 Zrotation Xrotation Yrotation
								End site
								{
									OFFSET 0.00000 0.00000 0.00000
								}
							}
						}
					}
					JOINT RightShoulder
					{
						OFFSET -0.01000 7.91370 5.19710
						CHANNELS 3 Zrotation Xrotation Yrotation
						JOINT RightArm
						{
							OFFSET -18.41580 0.00000 0.00000
							CHANNELS 3 Zrotation Xrotation Yrotation
							JOINT RightForeArm
							{
								OFFSET -29.11090 0.00000 0.00000
								CHANNELS 3 Zrotation Xrotation Yrotation
								JOINT RightHand
								{
									OFFSET -24.65040 0.00000 0.00000
									CHANNELS 3 Zrotation Xrotation Yrotation
									JOINT RightHandThumb1
									{
										OFFSET -5.35110 -0.85590 3.97910
										CHANNELS 3 Zrotation Xrotation Yrotation
										JOINT RightHandThumb2
										{
											OFFSET -4.52790 0.00000 0.00000
											CHANNELS 3 Zrotation Xrotation Yrotation
											JOINT RightHandThumb3
											{
												OFFSET -2.46980 0.00000 0.00000
												CHANNELS 3 Zrotation Xrotation Yrotation
												End site
												{
													OFFSET 0.00000 0.00000 0.00000
												}
											}
										}
									}
									JOINT RightHandIndex1
									{
										OFFSET -14.26970 0.00000 2.88140
										CHANNELS 3 Zrotation Xrotation Yrotation
										JOINT RightHandIndex2
										{
											OFFSET -5.48840 0.00000 0.00000
											CHANNELS 3 Zrotation Xrotation Yrotation
											JOINT RightHandIndex3
											{
												OFFSET -3.01860 0.00000 0.00000
												CHANNELS 3 Zrotation Xrotation Yrotation
												End site
												{
													OFFSET 0.00000 0.00000 0.00000
												}
											}
										}
									}
									JOINT RightHandMiddle1
									{
										OFFSET -14.26970 0.00000 -0.09150
										CHANNELS 3 Zrotation Xrotation Yrotation
										JOINT RightHandMiddle2
										{
											OFFSET -6.17440 0.00000 0.00000
											CHANNELS 3 Zrotation Xrotation Yrotation
											JOINT RightHandMiddle3
											{
												OFFSET -3.56740 0.00000 0.00000
												CHANNELS 3 Zrotation Xrotation Yrotation
												End site
												{
													OFFSET 0.00000 0.00000 0.00000
												}
											}
										}
									}
									JOINT RightHandRing1
									{
										OFFSET -12.69180 0.00000 -3.06430
										CHANNELS 3 Zrotation Xrotation Yrotation
										JOINT RightHandRing2
										{
											OFFSET -5.62560 0.00000 0.00000
											CHANNELS 3 Zrotation Xrotation Yrotation
											JOINT RightHandRing3
											{
												OFFSET -3.56740 0.00000 0.00000
												CHANNELS 3 Zrotation Xrotation Yrotation
												End site
												{
													OFFSET 0.00000 0.00000 0.00000
												}
											}
										}
									}
									JOINT RightHandPinky1
									{
										OFFSET -11.11390 0.00000 -6.03720
										CHANNELS 3 Zrotation Xrotation Yrotation
										JOINT RightHandPinky2
										{
											OFFSET -4.52790 0.00000 0.00000
											CHANNELS 3 Zrotation Xrotation Yrotation
											JOINT RightHandPinky3
											{
												OFFSET -2.46980 0.00000 0.00000
												CHANNELS 3 Zrotation Xrotation Yrotation
												End site
												{
													OFFSET 0.00000 0.00000 0.00000
												}
											}
										}
									}
								}
							}
						}
					}
					JOINT LeftShoulder
					{
						OFFSET 0.01000 7.91370 5.19710
						CHANNELS 3 Zrotation Xrotation Yrotation
						JOINT LeftArm
						{
							OFFSET 18.41580 0.00000 0.00000
							CHANNELS 3 Zrotation Xrotation Yrotation
							JOINT LeftForeArm
							{
								OFFSET 29.11090 0.00000 0.00000
								CHANNELS 3 Zrotation Xrotation Yrotation
								JOINT LeftHand
								{
									OFFSET 24.65040 0.00000 0.00000
									CHANNELS 3 Zrotation Xrotation Yrotation
									JOINT LeftHandThumb1
									{
										OFFSET 5.35110 -0.85590 3.97910
										CHANNELS 3 Zrotation Xrotation Yrotation
										JOINT LeftHandThumb2
										{
											OFFSET 4.52790 0.00000 0.00000
											CHANNELS 3 Zrotation Xrotation Yrotation
											JOINT LeftHandThumb3
											{
												OFFSET 2.46980 0.00000 0.00000
												CHANNELS 3 Zrotation Xrotation Yrotation
												End site
												{
													OFFSET 0.00000 0.00000 0.00000
												}
											}
										}
									}
									JOINT LeftHandIndex1
									{
										OFFSET 14.26970 0.00000 2.88140
										CHANNELS 3 Zrotation Xrotation Yrotation
										JOINT LeftHandIndex2
										{
											OFFSET 5.48840 0.00000 0.00000
											CHANNELS 3 Zrotation Xrotation Yrotation
											JOINT LeftHandIndex3
											{
												OFFSET 3.01860 0.00000 0.00000
												CHANNELS 3 Zrotation Xrotation Yrotation
												End site
												{
													OFFSET 0.00000 0.00000 0.00000
												}
											}
										}
									}
									JOINT LeftHandMiddle1
									{
										OFFSET 14.26970 0.00000 -0.09150
										CHANNELS 3 Zrotation Xrotation Yrotation
										JOINT LeftHandMiddle2
										{
											OFFSET 6.17440 0.00000 0.00000
											CHANNELS 3 Zrotation Xrotation Yrotation
											JOINT LeftHandMiddle3
											{
												OFFSET 3.56740 0.00000 0.00000
												CHANNELS 3 Zrotation Xrotation Yrotation
												End site
												{
													OFFSET 0.00000 0.00000 0.00000
												}
											}
										}
									}
									JOINT LeftHandRing1
									{
										OFFSET 12.69180 0.00000 -3.06430
										CHANNELS 3 Zrotation Xrotation Yrotation
										JOINT LeftHandRing2
										{
											OFFSET 5.62560 0.00000 0.00000
											CHANNELS 3 Zrotation Xrotation Yrotation
											JOINT LeftHandRing3
											{
												OFFSET 3.56740 0.00000 0.00000
												CHANNELS 3 Zrotation Xrotation Yrotation
												End site
												{
													OFFSET 0.00000 0.00000 0.00000
												}
											}
										}
									}
									JOINT LeftHandPinky1
									{
										OFFSET 11.11390 0.00000 -6.03720
										CHANNELS 3 Zrotation Xrotation Yrotation
										JOINT LeftHandPinky2
										{
											OFFSET 4.52790 0.00000 0.00000
											CHANNELS 3 Zrotation Xrotation Yrotation
											JOINT LeftHandPinky3
											{
												OFFSET 2.46980 0.00000 0.00000
												CHANNELS 3 Zrotation Xrotation Yrotation
												End site
												{
													OFFSET 0.00000 0.00000 0.00000
												}
											}
										}
									}
								}
							}
						}
					}
					JOINT pCube4
					{
						OFFSET 0.00000 10.91090 1.10790
						CHANNELS 3 Zrotation Xrotation Yrotation
						End site
						{
							OFFSET 0.00000 0.00000 0.00000
						}
					}
				}
			}
		}
	}
	JOINT RightUpLeg
	{
		OFFSET -9.98440 0.00000 0.00000
		CHANNELS 3 Zrotation Xrotation Yrotation
		JOINT RightLeg
		{
			OFFSET 0.00000 -42.11790 0.00000
			CHANNELS 3 Zrotation Xrotation Yrotation
			JOINT RightFoot
			{
				OFFSET 0.00000 -45.00020 -0.00000
				CHANNELS 3 Zrotation Xrotation Yrotation
				JOINT RightForeFoot
				{
					OFFSET 0.00000 -3.74820 0.00000
					CHANNELS 3 Zrotation Xrotation Yrotation
					JOINT RightToeBase
					{
						OFFSET 0.00000 0.06320 14.43120
						CHANNELS 3 Zrotation Xrotation Yrotation
						End site
						{
							OFFSET 0.00000 0.00000 0.00000
						}
					}
				}
			}
		}
	}
	JOINT LeftUpLeg
	{
		OFFSET 9.98440 0.00000 0.00000
		CHANNELS 3 Zrotation Xrotation Yrotation
		JOINT LeftLeg
		{
			OFFSET 0.00000 -42.11800 0.00000
			CHANNELS 3 Zrotation Xrotation Yrotation
			JOINT LeftFoot
			{
				OFFSET 0.00000 -45.00070 0.00000
				CHANNELS 3 Zrotation Xrotation Yrotation
				JOINT LeftForeFoot
				{
					OFFSET 0.00000 -3.74820 0.00000
					CHANNELS 3 Zrotation Xrotation Yrotation
					JOINT LeftToeBase
					{
						OFFSET 0.00000 0.06330 14.43110
						CHANNELS 3 Zrotation Xrotation Yrotation
						End site
						{
							OFFSET 0.00000 0.00000 0.00000
						}
					}
				}
			}
		}
	}
}
MOTION
Frames: 4
Frame Time: 0.050000
0.0 0.0 0.0 -0.0 0.0 -0.0 -2.1277401105598193 4.5735639636838625 -1.037903660116967 -0.7738414342954856 3.6678224230584706 0.37205816712320533 -0.8448276454613493 -0.5377463928826998 -0.5019675068456068 -0.17744925190302724 0.13414379072583324 -0.7607337543256175 -0.7678980817023271 10.525700846433635 0.527944461926391 -0.08898044064004865 -0.9942039308351692 -0.7740381194893979 -0.11302779197376706 -15.830160473076086 -0.07079456573896808 0.5261927539370083 0.1036684988581673 -13.156660175721518 65.7137372726406 12.557949259613213 15.02802250146078 15.30309711653319 2.5498521063447996 87.86126458787875 19.24730785616771 0.20583718843620394 -5.645838176294627 0.6662 0.2057 17.0925 -0.0 0.0 -33.8039 0.0 -0.0 -33.8039 -34.8611 0.0 -0.0 -0.0 -0.0 -0.0 -0.0 -0.0 -0.0 -39.5292 -0.0 -0.0 0.0001 -0.0 -0.0 0.0 -0.0 -0.0 -39.836 0.0 -0.0 -0.0 0.0 0.0 -0.0 0.0 0.0 -51.5202 0.0 -0.0 0.0 0.0 -0.0 -0.0 0.0 -0.0 2.3438450290743025 0.6423172471451666 12.017105396112745 -63.37078367884653 21.143995490649964 -21.423261439853764 -17.49884969128087 0.2778927253799276 -82.80834867322052 -17.51295870069087 0.22086909603084864 0.015043058165840232 -11.4004 0.4367 -2.1684 -0.0 0.0 51.662 -0.0 0.0 51.662 51.1458 -0.0 -0.0 0.0 -0.0 0.0 -0.0 -0.0 -0.0 54.7253 -0.0 -0.0 0.0 -0.0 0.0 0.0 -0.0 0.0 52.0182 -0.0 -0.0 -0.0 0.0 0.0 0.0 -0.0 0.0 53.1081 0.0 -0.0 -0.0 0.0 -0.0 -0.0 0.0 -0.0 -0.0 -0.0 0.0 -10.7723 -22.4021 0.7241 0.0 71.1458 0.0011 6.4424 -4.2818 -1.0868 0.0 -0.0 0.0 -0.0 -3.537 0.0 -5.7053 -14.9258 11.3918 0.0001 32.3095 -0.0187 4.7164 -11.0815 7.5774 0.0 -0.0 0.0 -0.0 -7.085 0.0
0.0 0.0 0.0 -0.0 0.0 -0.0 -1.618677051942771 4.239472534328138 -1.2294410948692178 -0.699843343770917 3.793170067286824 0.35573349230299495 -0.7410894351485512 -0.6505477171435315 -0.6165209319491941 -0.30301486755999973 -0.07695415000414166 -0.684235491922403 -1.129634918178482 11.370192754632964 0.9829060207193375 -0.059222570542215365 -1.0414764166892134 1.2278444062828744 -0.2311436591935966 -16.16710827820128 0.065413907687913 -0.4884071410445008 0.31130085284345493 -13.469333118177225 64.97788069596639 13.32205872900213 18.07201129025295 18.963609245319798 5.360739620030561 97.05843779780609 23.588068736421626 0.15616952853132593 -7.30119335577982 0.6662 0.2057 17.0925 -0.0 0.0 -33.8039 0.0 -0.0 -33.8039 -34.8611 0.0 -0.0 -0.0 -0.0 -0.0 -0.0 -0.0 -0.0 -39.5292 -0.0 -0.0 0.0001 -0.0 -0.0 0.0 -0.0 -0.0 -39.836 0.0 -0.0 -0.0 0.0 0.0 -0.0 0.0 0.0 -51.5202 0.0 -0.0 0.0 0.0 -0.0 -0.0 0.0 -0.0 4.478467235869291 1.1183573794342492 12.179961511209012 -62.97132565124703 18.305478643322058 -28.86466714085059 -31.55994295180608 3.2956407467713675 -90.99874658633817 -25.599288645139357 0.050290411925083406 1.8685949856268635 -11.4004 0.4367 -2.1684 -0.0 0.0 51.662 -0.0 0.0 51.662 51.1458 -0.0 -0.0 0.0 -0.0 0.0 -0.0 -0.0 -0.0 54.7253 -0.0 -0.0 0.0 -0.0 0.0 0.0 -0.0 0.0 52.0182 -0.0 -0.0 -0.0 0.0 0.0 0.0 -0.0 0.0 53.1081 0.0 -0.0 -0.0 0.0 -0.0 -0.0 0.0 -0.0 -0.0 -0.0 0.0 -10.7723 -22.4021 0.7241 0.0 71.1458 0.0011 6.4424 -4.2818 -1.0868 0.0 -0.0 0.0 -0.0 -3.537 0.0 -5.7053 -14.9258 11.3918 0.0001 32.3095 -0.0187 4.7164 -11.0815 7.5774 0.0 -0.0 0.0 -0.0 -7.085 0.0
0.0 0.0 0.0 -0.0 0.0 -0.0 -1.4898218662543463 4.03930218523898 -1.2600779936934623 -0.6991119913965471 3.807041154542059 0.35833313761276914 -0.7230403380868881 -0.7370891768291468 -0.8081160900813406 -0.33205376755728233 -0.09150755117736112 -0.6926360373738133 -1.3343269209938318 11.955132061305726 1.2902372677246965 -0.0813194803395305 -0.9443523289611846 2.285483127771093 -0.34080061342326223 -16.224723993471837 0.14303344792008438 -1.3875352794967928 0.4920367679192605 -13.378765029932348 63.85520460875832 14.25662930965752 21.903430968434822 24.758875408590146 8.703094767644206 106.13791144484581 24.607939423911116 0.12592283124851408 -8.63588165343905 0.6662 0.2057 17.0925 -0.0 0.0 -33.8039 0.0 -0.0 -33.8039 -34.8611 0.0 -0.0 -0.0 -0.0 -0.0 -0.0 -0.0 -0.0 -39.5292 -0.0 -0.0 0.0001 -0.0 -0.0 0.0 -0.0 -0.0 -39.836 0.0 -0.0 -0.0 0.0 0.0 -0.0 0.0 0.0 -51.5202 0.0 -0.0 0.0 0.0 -0.0 -0.0 0.0 -0.0 6.00608038500507 1.453624803785198 12.049350682866098 -62.48951493583618 16.128037532597737 -35.026563860649354 -42.41959176477727 7.298810671349741 -98.30162063848617 -28.358572525026894 -0.069342435577367 2.8974997778783633 -11.4004 0.4367 -2.1684 -0.0 0.0 51.662 -0.0 0.0 51.662 51.1458 -0.0 -0.0 0.0 -0.0 0.0 -0.0 -0.0 -0.0 54.7253 -0.0 -0.0 0.0 -0.0 0.0 0.0 -0.0 0.0 52.0182 -0.0 -0.0 -0.0 0.0 0.0 0.0 -0.0 0.0 53.1081 0.0 -0.0 -0.0 0.0 -0.0 -0.0 0.0 -0.0 -0.0 -0.0 0.0 -10.7723 -22.4021 0.7241 0.0 71.1458 0.0011 6.4424 -4.2818 -1.0868 0.0 -0.0 0.0 -0.0 -3.537 0.0 -5.7053 -14.9258 11.3918 0.0001 32.3095 -0.0187 4.7164 -11.0815 7.5774 0.0 -0.0 0.0 -0.0 -7.085 0.0
0.0 0.0 0.0 -0.0 0.0 -0.0 -1.5139946490963367 3.6277922077204745 -1.2150360000166571 -0.7398894802476894 3.8464086987217097 0.36813759059300283 -0.7724562331743221 -0.8636312132220063 -0.7352894760915833 -0.2860930802906936 -0.04197389110991969 -0.6794046168349643 -1.240381287350967 12.400390968030479 1.1430841499151692 -0.07913282557336188 -0.7693401139484192 1.8216183182276586 -0.28584013214007087 -16.125899546424062 0.11181467539728511 -2.280550548932949 0.6818643630489163 -13.430911981014233 62.85842136481265 16.527193240205616 23.644026856815078 26.701807857924237 10.106551200017963 111.39256195366418 23.754665843914495 0.2068350978205465 -8.801858519983275 0.6662 0.2057 17.0925 -0.0 0.0 -33.8039 0.0 -0.0 -33.8039 -34.8611 0.0 -0.0 -0.0 -0.0 -0.0 -0.0 -0.0 -0.0 -39.5292 -0.0 -0.0 0.0001 -0.0 -0.0 0.0 -0.0 -0.0 -39.836 0.0 -0.0 -0.0 0.0 0.0 -0.0 0.0 0.0 -51.5202 0.0 -0.0 0.0 0.0 -0.0 -0.0 0.0 -0.0 6.674124141029484 1.6151388435857497 12.239462955860398 -61.929359632248435 15.956606546335479 -35.8683191965914 -42.395771904520906 8.527792970369033 -101.92732873429978 -26.69141303686514 0.05306168670863557 2.6046094316165926 -11.4004 0.4367 -2.1684 -0.0 0.0 51.662 -0.0 0.0 51.662 51.1458 -0.0 -0.0 0.0 -0.0 0.0 -0.0 -0.0 -0.0 54.7253 -0.0 -0.0 0.0 -0.0 0.0 0.0 -0.0 0.0 52.0182 -0.0 -0.0 -0.0 0.0 0.0 0.0 -0.0 0.0 53.1081 0.0 -0.0 -0.0 0.0 -0.0 -0.0 0.0 -0.0 -0.0 -0.0 0.0 -10.7723 -22.4021 0.7241 0.0 71.1458 0.0011 6.4424 -4.2818 -1.0868 0.0 -0.0 0.0 -0.0 -3.537 0.0 -5.7053 -14.9258 11.3918 0.0001 32.3095 -0.0187 4.7164 -11.0815 7.5774 0.0 -0.0 0.0 -0.0 -7.085 0.0
